<mxfile host="app.diagrams.net" modified="2024-03-29T04:41:35.685Z" agent="Mozilla/5.0 (Windows NT 10.0; Win64; x64) AppleWebKit/537.36 (KHTML, like Gecko) Chrome/122.0.0.0 Safari/537.36 Edg/122.0.0.0" etag="DBT1y3J00qNboZcfTNzT" version="24.2.0" type="device">
  <diagram name="ページ1" id="3QMiK-8s5itA9Dn_kEbr">
    <mxGraphModel dx="1308" dy="662" grid="1" gridSize="10" guides="1" tooltips="1" connect="1" arrows="1" fold="1" page="1" pageScale="1" pageWidth="1169" pageHeight="827" math="0" shadow="0">
      <root>
        <mxCell id="0" />
        <mxCell id="1" parent="0" />
        <mxCell id="hgs2g2ZZLWqZQA3Zj-oL-8" value="v2dsynthの初期化" style="swimlane;whiteSpace=wrap;html=1;" vertex="1" parent="1">
          <mxGeometry x="120" y="150" width="870" height="360" as="geometry" />
        </mxCell>
        <mxCell id="hgs2g2ZZLWqZQA3Zj-oL-25" style="edgeStyle=orthogonalEdgeStyle;rounded=0;orthogonalLoop=1;jettySize=auto;html=1;exitX=1;exitY=0.75;exitDx=0;exitDy=0;entryX=0;entryY=0.5;entryDx=0;entryDy=0;" edge="1" parent="hgs2g2ZZLWqZQA3Zj-oL-8" source="hgs2g2ZZLWqZQA3Zj-oL-1" target="hgs2g2ZZLWqZQA3Zj-oL-24">
          <mxGeometry relative="1" as="geometry" />
        </mxCell>
        <mxCell id="hgs2g2ZZLWqZQA3Zj-oL-1" value="v2d" style="rounded=0;whiteSpace=wrap;html=1;" vertex="1" parent="hgs2g2ZZLWqZQA3Zj-oL-8">
          <mxGeometry x="100" y="100" width="120" height="220" as="geometry" />
        </mxCell>
        <mxCell id="hgs2g2ZZLWqZQA3Zj-oL-22" style="edgeStyle=orthogonalEdgeStyle;rounded=0;orthogonalLoop=1;jettySize=auto;html=1;exitX=0;exitY=0.25;exitDx=0;exitDy=0;entryX=1;entryY=0.5;entryDx=0;entryDy=0;" edge="1" parent="hgs2g2ZZLWqZQA3Zj-oL-8" source="hgs2g2ZZLWqZQA3Zj-oL-2" target="hgs2g2ZZLWqZQA3Zj-oL-20">
          <mxGeometry relative="1" as="geometry" />
        </mxCell>
        <mxCell id="hgs2g2ZZLWqZQA3Zj-oL-2" value="v2dsynth" style="rounded=0;whiteSpace=wrap;html=1;" vertex="1" parent="hgs2g2ZZLWqZQA3Zj-oL-8">
          <mxGeometry x="650" y="85" width="160" height="250" as="geometry" />
        </mxCell>
        <mxCell id="hgs2g2ZZLWqZQA3Zj-oL-23" style="edgeStyle=orthogonalEdgeStyle;rounded=0;orthogonalLoop=1;jettySize=auto;html=1;exitX=0;exitY=0.5;exitDx=0;exitDy=0;entryX=1;entryY=0.25;entryDx=0;entryDy=0;" edge="1" parent="hgs2g2ZZLWqZQA3Zj-oL-8" source="hgs2g2ZZLWqZQA3Zj-oL-20" target="hgs2g2ZZLWqZQA3Zj-oL-1">
          <mxGeometry relative="1" as="geometry" />
        </mxCell>
        <mxCell id="hgs2g2ZZLWqZQA3Zj-oL-20" value="v2dsynth初期化信号&lt;div&gt;&lt;br&gt;&lt;/div&gt;&lt;div&gt;SendMessage&lt;/div&gt;&lt;div&gt;hWnd: FindWindow(&quot;Virtual2D&quot;)&lt;/div&gt;&lt;div&gt;Msg:11850100(v2d_signal)&lt;/div&gt;&lt;div&gt;wParam: 0&lt;/div&gt;&lt;div&gt;lParam: 0&lt;/div&gt;" style="rounded=0;whiteSpace=wrap;html=1;" vertex="1" parent="hgs2g2ZZLWqZQA3Zj-oL-8">
          <mxGeometry x="320" y="70" width="200" height="140" as="geometry" />
        </mxCell>
        <mxCell id="hgs2g2ZZLWqZQA3Zj-oL-26" style="edgeStyle=orthogonalEdgeStyle;rounded=0;orthogonalLoop=1;jettySize=auto;html=1;exitX=1;exitY=0.5;exitDx=0;exitDy=0;entryX=0;entryY=0.75;entryDx=0;entryDy=0;" edge="1" parent="hgs2g2ZZLWqZQA3Zj-oL-8" source="hgs2g2ZZLWqZQA3Zj-oL-24" target="hgs2g2ZZLWqZQA3Zj-oL-2">
          <mxGeometry relative="1" as="geometry" />
        </mxCell>
        <mxCell id="hgs2g2ZZLWqZQA3Zj-oL-24" value="return 1248" style="rounded=0;whiteSpace=wrap;html=1;" vertex="1" parent="hgs2g2ZZLWqZQA3Zj-oL-8">
          <mxGeometry x="320" y="220" width="200" height="110" as="geometry" />
        </mxCell>
        <mxCell id="hgs2g2ZZLWqZQA3Zj-oL-27" value="v2dに声を届ける" style="swimlane;whiteSpace=wrap;html=1;" vertex="1" parent="1">
          <mxGeometry x="120" y="530" width="200" height="200" as="geometry" />
        </mxCell>
      </root>
    </mxGraphModel>
  </diagram>
</mxfile>
